{
   "accessors": [
      {
         "bufferView": 0,
         "byteOffset": 0,
         "componentType": 5126,
         "count": 3,
         "type": "SCALAR",
		 "max": [
		  	2.0
		 ],
		 "min": [
			0.0
		 ]		 
      },
      {
         "bufferView": 1,
         "byteOffset": 0,
         "componentType": 5126,
         "count": 3,
         "type": "VEC3"
      }
   ],
   "animations": [
      {
         "channels": [
            {
               "sampler": 0,
               "target": {
                  "node": 0,
                  "path": "translation"
               }
            }
         ],
         "samplers": [
            {
               "input": 0,
               "interpolation": "LINEAR",
               "output": 1
            }
         ]
      }
   ],
   "asset": {
      "generator": "gen2gltf2 by UX3D",
      "version": "2.0"
   },
   "bufferViews": [
      {
         "buffer": 0,
         "byteLength": 12,
         "byteOffset": 0
      },
      {
         "buffer": 0,
         "byteLength": 36,
         "byteOffset": 12
      }
   ],
   "buffers": [
      {
         "byteLength": 48,
         "uri": "generated.bin"
      }
   ],
   "nodes": [
      {
         "name": "name"
	  }
   ]
}